<?xml version="1.0"?>
<svg xmlns:rdf="http://www.w3.org/1999/02/22-rdf-syntax-ns#" xmlns="http://www.w3.org/2000/svg" xmlns:cc="http://web.resource.org/cc/" xmlns:dc="http://purl.org/dc/elements/1.1/" xmlns:sodipodi="http://inkscape.sourceforge.net/DTD/sodipodi-0.dtd" xmlns:svg="http://www.w3.org/2000/svg" id="Layer_1" style="enable-background:new 0 0 129.543 388.744" space="preserve" sodipodi:version="0.32" viewBox="0 0 129.543 388.744" version="1.1" sodipodi:docname="Attaccapanni con vestito da donna.svg" sodipodi:docbase="F:\openclip\svg da inviare">
  <sodipodi:namedview id="base" bordercolor="#666666" borderopacity="1.0" pagecolor="#ffffff"/>
  <path id="path3" d="m60.534 10.324c3.073-0.774 8.374-3.646 12.048-6.702 2.791-2.322 4.723-1.854 3.011 1.28-1.577 2.888-7.734 5.315-10.541 6.776 5.251 0.594 10.161 4.987 16.265 4.819l-1.959 0.903c2.2 1.721 9.54 2.881 12.198 2.862-1.198 0.314-2.079 1.057-3.163 1.506 2.067 0.161 4.164 0.479 6.023 1.355-2.255-0.311-4.554-0.102-6.776 0.301 3.28 1.375 6.889 1.097 10.089 2.862-0.491 0.091-1.727 0.78-2.258 0.903 2.006 0.618 3.681 1.879 4.818 3.615-1.046-0.381-1.908-0.082-2.561-0.151 2.042 2.702 4.044 5.555 5.422 8.659 2.009 4.523-0.205 5.796 0.301 10.315-0.301-0.502-0.603-1.004-0.903-1.506-4.052 8.563 0.339 17.353 3.463 25.147 8.083 20.168 11.518 42.117 21.308 61.739 2.696 5.405 3.804 6.312-1.731 9.036-2.299 1.131-7.01 3.892-9.486 4.064-3.692 0.257-2.858 0.155-4.441-3.538-3.024-7.058-6.427-14.131-9.886-21.051-1.017-2.032-8.192-18.497-9.014-18.478-5.508 0.13-0.729 22.412 0.084 24.985 3.084 9.771 4.719 18.737 5.226 28.952 0.187 3.77-0.915 4.874-1.545 7.501-0.851 3.551-1.147 7.893-1.431 11.896-0.68 9.584-2.508 18.866-2.98 28.546-0.999 20.439-1.54 40.812-2.599 61.264-0.226 4.358-9.141 4.389-12.415 5.209-6.352 1.592-11.84-0.051-12.197 7.379-0.222 4.617 0.956 9.013 2.108 12.8 0.452 1.486-3.404 3.219 0.903 2.86 0.331 2.522-2.24 4.287-2.109 5.12 0.489 3.11 2.789 0.529 3.615 3.012 1.281 3.853-5.842 7.064-0.754 7.529-4.591 2.091-2.889 10.965-0.074 13.778 4.374 4.375 10.815 6.18 15.584 10.014 7.748 6.23 7.227 18.093 4.368 26.955-1.374 4.259-5.442 6.945-6.099 11.52-0.353 2.453 0.334 4.065 2.635 5.045 2.644 1.125 1.676-1.773 3.766-2.109 1.994-0.32 9.195 0.985 10.541 2.862 3.012 4.199 0.848 3.319-1.356 4.366-3.11 1.477-4.923 0.319-8.96 1.129-5.352 1.075-5.495-3.594-8.96-4.141-2.138-8.346 1.281-17.536 1.958-25.899 0.494-6.103 2.39-13.54-2.56-17.995-3.578-3.221-8.108-5.029-12.047-7.756-8.168 3.48-5.183 17.608-3.012 24.545 2.697 8.618 2.534 16.109 1.055 25.3 11.092 2.493-11.386 15.899-9.488 4.517 0.638-3.827 3.829-3.983 4.971-8.583 2.106-8.482-1.446-13.309-3.163-20.932-1.166-5.175-1.985-12.172-0.15-17.468 0.992-2.862 5.874-7.104 1.354-7.077-3.722 0.021-14.743 9.585-15.811 12.8-1.868 5.619 2.29 15.669 4.066 20.705 2.275 6.451 4.914 16.813-3.162 19.802-3.975 1.472-7.534-0.498-11.746 0.903-12.267 4.08-0.253-11.246 1.807-9.186 1.877 1.877 2.585 0.997 4.217 1.807 0.231 0.115 5.677 3.337 4.969 3.313 3.603 0.122 3.43-9.04 1.656-13.101-3.359-7.688-9-12.227-7.378-22.135 1.172-7.16 8.349-10.349 14.455-13.704 2.384-1.31 6.743-2.388 8.433-4.518 2.553-3.218 2.559-12.478-0.753-15.059 4.772 0.599-4.187-5.348 1.506-9.035-3.08-2.259-2.665-6.461 1.055-6.624-4.552-3.205-0.302-1.815-0.302-5.497v-10.465c0-4.4-1.06-4.333-4.817-4.971-4.244-0.721-8.391 2.254-11.746-1.957-4.364-5.478-3.484-21.154-4.523-28.159-3.361-22.661-7.434-45.217-9.331-68.064-0.136-1.638 0.179-6.136-0.603-7.831-0.848-1.84-2.911-2.703-3.313-3.915-1.419-4.268 1.041-11.651 1.658-16.113 1.94-14.042 5.826-29.21 1.053-43.066-8.894 9.424-7.713 29.019-11.669 40.883-2.689 8.065-12.402 1.292-18.748 1.28 6.146-24.276 9.205-49.716 14.757-74.088 1.646-7.222 5.029-10.916 3.162-16.414-0.941-2.772-2.948-5.423-2.71-8.282 0.366-4.396 2.994-9.875 4.819-13.854-3.16 1.141-6.29 6.669-5.722 10.39-3.236-5.43 3.423-13.913 7.679-17.317-1.995 0.287-2.438 0.671-3.615 2.109 0.009 0.041-0.731-0.007-0.602-0.151 1.559-2.527 4.45-3.166 6.776-4.97 0.563-0.437 0.887-2.73 3.915-3.614-1.306-0.117-2.982-0.995-4.066-1.205 4.101-1.244 9.082-0.74 12.951-1.656-7.337-3.679 3.369-2.303 4.216-6.023 2.733 1.852 8.266-2.496 10.691-4.367-2.416-0.502-13.59 5.002-11.893 0.622-0.996 0.498-2.496 0.842-3.163 1.355 2.334-3.272 5.791-0.969 7.681-2.108 1.53-0.922 0.71-3.582 3.012-5.722-0.063 0.147-0.61 3.13-0.303 3.162 0.74 0.077 4.008-1.699 3.766-1.807 1.683 0.748 1.438 3.598 1.957 5.271 2.922-1.113-0.465-6.39 1.657-6.927 3.55-0.898 0.42 6.448 4.366 4.367-0.145 0.672-0.24 0.607-0.753 1.055 0.151-0.05 0.202 0 0.151 0.15 2.083-2.397 1.246-9.032 6.776-8.132-0.855 3.624-2.91 7.316-4.969 10.24"/>
  <path id="path5" fill="#fff" d="m74.991 3.547c-0.501 1.017-0.151 0.306 0 0"/>
  <path id="path7" fill="#fff" d="m57.222 7.763c-1.368-0.041-2.022-0.251-1.959-2.56 1.025 0.608 1.342 1.432 1.959 2.56"/>
  <path id="path9" fill="#fff" d="m71.075 5.957c-0.841 0.536-0.793 1.253-1.806 0.903 0.497-0.291 1.708-0.841 1.806-0.903"/>
  <path id="path11" fill="#fff" d="m51.952 5.655c-0.927 0.819-0.907 1.663-2.41 1.657 0.611-1.604 1.53-1.292 2.41-1.657"/>
  <path id="path13" fill="#fff" d="m46.982 6.257c-0.047 0.746 0.586 1.2-0.602 1.506 0.114-0.635 0.602-1.513 0.602-1.506"/>
  <path id="path15" fill="#fff" d="m56.469 9.118c1.434-0.372 0.361-0.094 0 0"/>
  <path id="path17" fill="#fff" d="m67.16 9.118c-1.014 0.72-2.64 1.66-3.614 1.808 1.08-0.612 2.936-1.493 3.614-1.808"/>
  <path id="path19" fill="#fff" d="m44.271 8.968c-1.031 0.587-1.456 1.178-2.71 1.205 0.901-1.115 1.702-0.836 2.71-1.205"/>
  <path id="path21" fill="#fff" d="m57.673 13.787c-0.52 0.416-1.029 0.852-1.957 0.904 1.999-3.382-4.268-3.775-2.861-4.518 2.236-1.18 5.896 1.346 4.818 3.614"/>
  <path id="path23" fill="#fff" d="m51.65 13.938c-0.8 0.395-1.243 0.821-2.258 0.753 0.298-2.784 1.453-3.373 2.258-0.753"/>
  <path id="path25" fill="#fff" d="m60.083 13.185c0.31-0.631-0.8-0.904 0.377-0.904 1.261 0-0.21 0.563-0.377 0.904"/>
  <path id="path27" fill="#fff" d="m67.611 13.335c-0.645 0.087-1.539 0.647-2.56 0.451 0.835-0.649 1.988-0.448 2.56-0.451"/>
  <path id="path29" fill="#fff" d="m52.251 17.853c0.876-0.211 1.787-0.455 2.561-0.602-1.082 1.002-2.335 1.468-3.765 1.958-0.286-2.539 1.506-4.577 3.463-6.023-0.978 1.316-2.269 3.573-2.259 4.667"/>
  <path id="path31" fill="#fff" d="m63.999 13.938c0.813 1.882-1.275 5.297-3.313 3.765-2.839-2.134 2.162-4.006 3.313-3.765"/>
  <path id="path33" fill="#fff" d="m47.583 14.389c-0.614-0.186-1.477 0.205-1.655 0.302 1.546-2.171 1.218-0.472 1.655-0.302"/>
  <path id="path35" fill="#fff" d="m67.763 15.142c-0.053 2.19-1.778 3.686-3.916 4.217 0.766-1.911 2.437-3.708 3.916-4.217"/>
  <path id="path37" fill="#fff" d="m74.086 16.798c-1.664 2.628-5.112 3.796-8.131 3.765 1.961-1.285 3.602-3.048 4.667-5.12 1.069 1.256 2.045 0.747 3.464 1.355"/>
  <path id="path39" fill="#fff" d="m48.187 16.045c-1.399 0.076-2.816 0-4.217 0 1.886-0.989 3.602-1.424 4.217 0"/>
  <path id="path41" fill="#fff" d="m49.993 17.1c-0.004-0.009-0.473-0.276-0.451-0.903 1.054 0.259 0.37 0.741 0.451 0.903"/>
  <path id="path43" fill="#fff" d="m39.753 15.895c0.452 0.05 0.904 0.101 1.356 0.151-0.452-0.051-0.903-0.101-1.356-0.151"/>
  <path id="path45" fill="#fff" d="m44.121 16.798c-1.218 0.068-1.973 0.269-3.012 0 0.944-0.101 2.557 0.028 3.012 0"/>
  <path id="path47" fill="#fff" d="m47.434 18.756c0.554-0.062 1.137 0.08 1.806-0.301-2.517 3.024-0.788 3.6 1.808 3.614 1.391 0.008 8.636-4.162 6.175 2.711-0.966-1.165-1.956-3.896-3.012-3.916-1.573-0.03-3.904 2.933-5.422 3.614 3.662 2.581 1.767 3.458-1.656 3.163 0.836 0.072-3.654-3.551-3.313-1.807-0.189-0.968 4.138-7.007-0.301-2.71-0.118-3.383-3.893-2.795-3.915-2.409 0.152-2.674 5.672-3.603 8.13-3.765-0.404 0.663-0.158 1.207-0.3 1.806"/>
  <path id="path49" fill="#fff" d="m59.932 19.057c-0.374-0.043-1.486 0.119-2.56-0.753 1.287-1.944 1.451-0.396 2.56 0.753"/>
  <path id="path51" fill="#fff" d="m77.55 18.304c-0.244 0.146 0.081 1.17-1.054 1.355-0.445-2.096 0.596-1.053 1.054-1.355"/>
  <path id="path53" fill="#fff" d="m55.867 18.906c-0.907 0.426-0.533 0.25 0 0"/>
  <path id="path55" fill="#fff" d="m62.341 20.714c-2.513 2.258 2.003 0.959 2.108 3.313 0.055 1.223-2.318 0.379-2.71 1.054-0.742 1.279-1.237 2.932-1.808 4.066 0.058-1.173 1.133-7.378-0.301-7.378 0.485 0 1.426-1.054 2.71-2.109 0.083 0.344-0.003 1.146 0.001 1.054"/>
  <path id="path57" fill="#fff" d="m68.214 22.22c-0.483-1.032-0.303-0.648 0 0"/>
  <path id="path59" fill="#fff" d="m70.925 21.768c-0.363 0.582 0.046 1.231-1.055 1.656 0.05-0.15 0-0.2-0.15-0.15 0.272-0.698 1.172-1.453 1.205-1.506"/>
  <path id="path61" fill="#fff" d="m67.461 22.671c-1.331-1.109-0.343-0.286 0 0"/>
  <path id="path63" fill="#fff" d="m59.63 24.78c-1.107 2.763-1.207 5.91 1.656 4.818 0.841-0.321 3.527-5.377 4.066-6.174 2.42 0.865 4.425 0.157 5.27 2.41-5.714-0.331-3.343 7.661-3.463 11.896-0.078 2.768-3.771 9.538-0.752 10.089-1.648 1.734-1.618 6.582-1.506 6.475-1.684 1.608-3.846-1.65-6.701-3.688-2.172-1.551-1.09-3.564-2.185-4.894-0.994-1.208-3.629-2.708-4.969-3.614-2.189-1.479-4.029-3.133-6.475-3.012 2.149-3.399 7.958-5.946 7.228-11.294 0.502 0.1 1.004 0.201 1.506 0.301-0.757 2.575 0.764 4.459 3.163 2.861 0.838-0.559 1.784-6.884 3.312-8.583 0.027 0.306-0.149 2.381-0.15 2.409"/>
  <path id="path65" fill="#fff" d="m76.195 23.876c-0.556 0.959-0.122 1.755-1.506 2.108-0.136-1.544 0.798-1.26 1.506-2.108"/>
  <path id="path67" fill="#fff" d="m53.91 25.683c-0.31 0.119-0.613 0.575-1.055 0.753 0.083-1.04 0.185-1.993 0.752-3.162 1.119 0.977 0.507 1.595 0.303 2.409"/>
  <path id="path69" d="m48.036 26.135c-0.123-0.295-1.673 0.399-0.149-1.807 0.868 0.72 0.019 1.032 0.149 1.807"/>
  <path id="path71" fill="#fff" d="m51.952 24.478c-0.56 0.211-0.091 0.751-1.054 0.603 0.018-0.948 0.446-0.373 1.054-0.603"/>
  <path id="path73" fill="#fff" d="m56.016 26.286c-0.547 0.311-1.014 0.368 0 0.753-0.301 0.1-0.602 0.201-0.903 0.301 0.837 2.257 0.78 1.89-0.451 3.765 0.647-0.806 0.589-1.225 0.754-1.958-3.187-0.166 0.305-3.014 0.6-2.861"/>
  <path id="path75" fill="#fff" d="m73.937 27.941c-1.308-1.441-0.65-0.717 0 0"/>
  <path id="path77" fill="#fff" d="m95.621 30.652c-0.582-0.22-2.524-0.336-3.162-0.452 0.452 0.703 0.903 1.406 1.355 2.109-1.108-0.223-1.93-0.677-2.861-1.356 1.771-1.763 3.855-1.82 4.668-0.301"/>
  <path id="path79" fill="#fff" d="m29.212 28.544c-0.397 0.24-0.283 0.854-1.054 0.451 0.399-0.339 0.923-0.371 1.054-0.451"/>
  <path id="path81" fill="#fff" d="m91.857 33.664c-1.145 0.399-2.38 0.836-3.766 0.151 1.351-0.62 2.361-0.347 3.766-0.151"/>
  <path id="path83" fill="#fff" d="m73.937 33.664c-0.535 0.412 0.163 1.401-1.205 0.904 0.07-1.407 0.721-0.531 1.205-0.904"/>
  <path id="path85" fill="#fff" d="m82.822 35.17c-1.098 0.124-1.669 0.672-2.861 0.151 1.434-1.074 2.137-0.363 2.861-0.151"/>
  <path id="path87" fill="#fff" d="m27.707 34.116c-0.8 0.84-1.167 1.713-2.56 1.958 0.583-1.71 1.666-1.702 2.56-1.958"/>
  <path id="path89" fill="#fff" d="m96.222 38.935c-0.683-0.334-1.336 0.263-1.506-1.054 0.437 0.249 1.428 1.015 1.506 1.054"/>
  <path id="path91" fill="#fff" d="m94.416 42.247c0.494 0.575 0.994 1.802 1.657 2.409-2.402-0.474-3.858-2.465-4.066-4.668 1.17 0.565 1.922 1.566 2.409 2.259"/>
  <path id="path93" fill="#fff" d="m79.658 42.097c-1.418 0.502-2.593 0.8-4.065 0.3 1.474-1.148 3.275-1.25 4.065-0.3"/>
  <path id="path95" fill="#fff" d="m85.532 43.301c-0.475 0.424-0.809 1.108-1.506 1.506 0.351-1.009 1.131-1.171 1.506-1.506"/>
  <path id="path97" fill="#fff" d="m51.499 46.765c-1.626 0.063-2.815 0.132-4.064-1.205 1.618-0.599 2.694 0.125 4.064 1.205"/>
  <path id="path99" fill="#fff" d="m19.576 45.56c-0.037-0.268-0.734-0.443 0.451-1.506 0.001-0.007-0.411 1.798-0.451 1.506"/>
  <path id="path101" fill="#fff" d="m45.777 46.313c-1.468 0.901-3.184 1.015-4.819 0.301 1.246-1.416 3.435-0.766 4.819-0.301"/>
  <path id="path103" fill="#fff" d="m97.728 49.325c0.005 0.097-0.403-1.057-0.301-1.506 0.558 0.605 0.279 1.07 0.301 1.506"/>
  <path id="path105" fill="#fff" d="m36.893 48.723c-0.541-1.021-1.768-1.127-0.904-3.012-0.04 1.192 0.608 2.088 0.904 3.012"/>
  <path id="path107" fill="#fff" d="m75.894 48.271c0.144-0.336-0.157-0.75 0.451-1.054 1.414 0.572-0.179 0.417-0.451 1.054"/>
  <path id="path109" fill="#fff" d="m91.555 50.529c-0.546-0.537-1.261-0.847-1.657-1.656 0.251 0.088 1.384 1.357 1.657 1.656"/>
  <path id="path111" fill="#fff" d="m74.689 48.873c-1.158 0.955-1.56 1.967-3.012 1.355 0.942-0.826 1.951-0.969 3.012-1.355"/>
  <path id="path113" fill="#fff" d="m101.04 52.638c0.1 0.024-1.132-0.287 0 0"/>
  <path id="path115" fill="#fff" d="m16.413 48.723c0.19 0.64 0.36 1.217 0 0"/>
  <path id="path117" fill="#fff" d="m70.925 51.433c-0.768 0.377-0.88 1.326-2.409 1.055 0.795-1.165 1.46-0.754 2.409-1.055"/>
  <path id="path119" fill="#fff" d="m39.302 51.132c-0.332-0.758-0.437-0.996 0 0"/>
  <path id="path121" fill="#fff" d="m17.769 54.444c-0.091-1.74-0.46-2.91 0.903-4.216-0.145 1.35-0.661 3.512-0.903 4.216"/>
  <path id="path123" fill="#fff" d="m89.898 57.607c0.011 0.678 0.073 1.127-0.301 1.656-0.222-2.381-2.063-4.015-2.41-6.476 0.921 1.498 2.021 3.695 2.711 4.82"/>
  <path id="path125" fill="#fff" d="m78.906 54.444c-1.029 1.069-2.145 1.918-3.766 2.259 1.049-1.911 2.414-2.297 3.766-2.259"/>
  <path id="path127" fill="#fff" d="m46.681 55.649c-1.46-0.29-2.445 0.151-2.56-1.958 1.258 0.4 1.75 1.15 2.56 1.958"/>
  <path id="path129" fill="#fff" d="m67.461 58.36c0.301-0.352 0.603-0.703 0.903-1.055 1.02 2.05 0.386 4.284-0.602 6.325-0.956-2.595-2.938-5.256-0.753-7.68 0.054 0.765 0.419 2.074 0.452 2.41"/>
  <path id="path131" fill="#fff" d="m42.917 56.402c-0.241 0.193-0.265 0.693-0.603 1.054-0.251-2.334 0.479-0.955 0.603-1.054"/>
  <path id="path133" fill="#fff" d="m62.642 60.167c-1-1.161-1.91-2.413-2.861-3.615 1.457 1.001 2.334 2.511 2.861 3.615"/>
  <path id="path135" fill="#fff" d="m73.183 58.51c-1.12 1.959-2.223 3.958-3.161 6.023-1.23-2.733 1.519-5.486 3.161-6.023"/>
  <path id="path137" fill="#fff" d="m81.316 58.36c-0.262 0.473 0.281 0.949-0.754 1.054 0.185-0.518 0.802-1.14 0.754-1.054"/>
  <path id="path139" fill="#fff" d="m93.964 61.522c-0.303-0.344-0.379-0.43 0 0"/>
  <path id="path141" fill="#fff" d="m86.886 65.287c-0.742-0.995-1.414-1.512-1.506-2.861 1.791 0.625 1.364 1.622 1.506 2.861"/>
  <path id="path143" fill="#fff" d="m65.956 69.804c-1.404 0.817-3.754-5.535-3.614-7.831 3.004 1.484 2.546 5.783 3.614 7.831"/>
  <path id="path145" fill="#fff" d="m81.164 63.179c-0.251 0.507 0.232 0.885-0.451 0.903 0.339-1.253 0.599-1.204 0.451-0.903"/>
  <path id="path147" fill="#fff" d="m100.59 65.438c-0.09-0.217-0.38-0.878 0 0"/>
  <path id="path149" fill="#fff" d="m24.545 64.082c0.63 1.833 0.637 3.779-0.151 5.271-0.048-1.207-0.577-2.415-0.753-3.614-1.357-0.154-1.805-1.679-2.409-3.463 1.015 0.846 2.314 1.251 3.313 1.806"/>
  <path id="path151" fill="#fff" d="m70.473 69.202c-0.054 1.25 0.247 1.976-0.753 2.71-0.503-1.644-0.887-3.385-0.753-5.12 0.251 0.452 0.502 0.904 0.753 1.355 0.76-1.39 1.496-2.221 1.808-3.765 0.6 2.095-0.087 3.252-1.055 4.82"/>
  <path id="path153" fill="#fff" d="m55.565 67.846c-0.352-0.351-0.703-0.703-1.055-1.054 1.249-0.11 0.761 0.49 1.055 1.054"/>
  <path id="path155" fill="#fff" d="m79.81 72.214c-0.356-0.493-1.606-0.121-0.302-1.055 0.222 0.211 0.285 1.032 0.302 1.055"/>
  <path id="path157" fill="#fff" d="m57.522 71.159c-0.815-0.013-0.724-0.012 0 0"/>
  <path id="path159" fill="#fff" d="m54.963 74.322c0.789 1.232 1.494 1.858 0.753 3.313-1.946-2.129-3.755-4.386-5.572-6.625 1.542 1.366 3.377 3.057 4.819 3.312"/>
  <path id="path161" fill="#fff" d="m34.333 72.214c-0.436-0.209-1.141 1.577-0.904-0.904 0.528 0.216 0.855 0.88 0.904 0.904"/>
  <path id="path163" fill="#fff" d="m66.257 73.268c-0.006-1.129-0.003-0.573 0 0"/>
  <path id="path165" fill="#fff" d="m37.646 72.063c-0.255-1.488 0.11 0.643 0 0"/>
  <path id="path167" fill="#fff" d="m90.351 79.743c-3.141 3.121-6.481 7.253-10.843 8.583 0.999 2.583-3.472 4.376-5.421 6.325-0.938 0.939 0.199 5.177-0.603 6.927-2.175-2.267 1.282-6.091-1.356-7.078-2.086-0.78-2.691 2.582-3.161 2.71-2.625 0.717-1.624-3.063-3.463-0.15-1.854-0.211-6.436-5.184-8.132-7.303-2.339-2.923 5.705 3.198 5.874 3.237-0.356-1.25-0.212-2.208-0.453-3.614h0.453c-0.219 2.438 2.392 6.773 4.668 3.765 0.201 0.351 0.401 0.703 0.603 1.054 3.767-0.216 4.438-4.118 6.173-6.475-0.468 1.458-0.008 2.584 0 4.066 1.733-0.651 3.352-1.566 4.819-2.711-0.452-0.3-0.63-0.518-1.356-0.753 1.823-2.596 5.771-4.143 7.682-5.873 2.536-2.296 4.339-6.157 7.228-8.131-0.674 1.762-2.183 4.019-2.712 5.419"/>
  <path id="path169" fill="#fff" d="m66.859 75.979c0.563 4.498 1.263 10.082-0.754 14.757-1.179-1.561-1.294-2.48-0.601-4.216-0.743-0.065-1.322-0.613-2.108-0.753 1.251-1.86 4.072-5.64 2.861-8.282-0.417 1.057-1.714 2.537-2.109 3.312-0.064-1.968 0.035-3.915 0.302-5.873 0.251 0.652 0.502 1.305 0.753 1.958 0.551-0.301 1.104-0.603 1.656-0.903"/>
  <path id="path171" fill="#fff" d="m81.316 76.881c-0.423 1.83-1.416 3.438-2.861 4.668 0.306-2.379 1.766-5.388 2.861-4.668"/>
  <path id="path173" fill="#fff" d="m86.886 77.333c-0.37 0.606-0.381 1.159-0.753 1.506-0.342-1.16 0.411-0.945 0.753-1.506"/>
  <path id="path175" fill="#fff" d="m72.581 79.14c-0.298 1.506-1.13 3.258-1.958 4.066-0.922-2.333-0.164-6.527 1.958-4.066"/>
  <path id="path177" fill="#fff" d="m85.681 81.098c0.053-0.249-0.727-0.784 0.452-1.506 0.101 0.1 0.201 0.201 0.302 0.301-0.119 0.315-0.788 1.368-0.754 1.205"/>
  <path id="path179" fill="#fff" d="m33.279 81.249c-0.608-1.003-1.265-1.267-1.055-2.561 0.586 0.756 0.964 2.329 1.055 2.561"/>
  <path id="path181" fill="#fff" d="m43.97 84.561c-1.257-1.228-2.182-2.587-2.559-4.367 1.243 1.199 2.323 3.097 2.559 4.367"/>
  <path id="path183" fill="#fff" d="m38.098 83.959c1.769 1.896 2.844 4.213 4.518 6.174-3.391 1.599-5.392-7.102-6.475-9.788 1.066 1.104 1.681 2.661 1.957 3.614"/>
  <path id="path185" fill="#fff" d="m59.179 83.357c-0.509-0.583-1.106-0.517-0.753-1.506 0.022 0.168-0.028 0.318-0.151 0.451 0.245 0.458 0.656 0.771 0.904 1.055"/>
  <path id="path187" fill="#fff" d="m76.195 83.357c-0.26 0.113 0.076 0.877-1.204 0.602 0.054-0.125 0.217-0.464 0.149-0.602 0.234-0.085 1.409-0.154 1.055 0"/>
  <path id="path189" fill="#fff" d="m60.234 84.863c-0.145 0.002-0.768 0.01 0 0"/>
  <path id="path191" fill="#fff" d="m58.125 86.669c-0.298-0.708-1.162-0.687-0.902-1.958 1.157 0.633 0.644 1.344 0.902 1.958"/>
  <path id="path193" fill="#fff" d="m55.867 91.187c1.026 1.075 1.296 1.745 3.161 2.259-2.318 0.991-4.185-0.826-6.323-3.012-1.94 1.421-1.404-0.762-0.604-2.56 1.392 0.825 3.041 2.301 3.766 3.313"/>
  <path id="path195" fill="#fff" d="m49.392 92.09c-0.766-0.678-1.666-0.229-1.506-1.656 0.567 0.433 1.416 1.577 1.506 1.656"/>
  <path id="path197" fill="#fff" d="m49.693 95.403c-2.169-0.65-3.792-2.221-4.518-4.366 1.863 1.015 3.343 2.643 4.518 4.366"/>
  <path id="path199" fill="#fff" d="m56.769 95.856c0.313 0.783-0.816 1.241 0.904 1.354-1.832-0.155-3.478-1.621-4.969-3.312 1.391 0.335 2.969 1.15 4.065 1.958"/>
  <path id="path201" fill="#fff" d="m60.384 95.704c-1.06 0.321-1.276 0.387 0 0"/>
  <path id="path203" fill="#fff" d="m55.263 97.662c-0.012-0.072-0.244-1.409 0 0"/>
  <path id="path205" fill="#fff" d="m63.847 97.662c-0.566-0.066-0.81 0.578-1.354-0.3 0.519-0.026 1.435 0.309 1.354 0.3"/>
  <path id="path207" fill="#fff" d="m74.238 104.29c-0.35 17.494 0.954 36.64 2.259 53.457 0.091 1.171-0.93 7.121 0 7.981 2.538 2.349 13.962-0.946 17.165 0.904-11.104-0.296-22.21-0.592-33.314-0.888-6.574-0.175-24.102-3.812-29.478-0.017-0.151-0.251-0.302-0.502-0.453-0.753 15.137 0.721 30.329 0.554 45.477 1.054-0.256-10.494-0.274-21.027-0.785-31.512-0.398-8.16-3.54-23.28-0.871-30.22"/>
  <path id="path209" fill="#fff" d="m68.365 109.56c1.416 2.62 0.817 4.869-0.302 6.776 0.895-5.772-1.316-7.931-7.228-6.776 1.74-2.53 5.306-2.07 7.53 0"/>
  <path id="path211" fill="#fff" d="m60.534 113.47c-0.055 2.916 3.008 4.596 5.571 4.518-3.68 1.95-7.689-3.21-5.571-4.52"/>
  <path id="path213" fill="#fff" d="m88.543 132.45c1.542 1 2.943 1.967 4.366 3.012-3.641-1.013-6.585-3.456-10.088-4.819 0.044 2.439-0.808 7.96 0.149 10.089 1.998 4.448 9.217 6.681 12.95 9.336-3.398-1.251-7.018-3.271-9.637-5.572-4.901-4.307-3.71-7.939-3.916-14.757 1.958 1.08 4.313 2.32 6.176 2.71"/>
  <path id="path215" fill="#fff" d="m44.121 135.16c6.704 8.753-1.334 15.917-10.089 18.521 3.885-2.442 8.894-4.682 10.992-8.432 2.628-4.696 0.16-6.557-1.807-11.144-3.419 2.321-7.124 4.285-9.938 7.379-1.016-1.92 10.235-10.18 10.842-6.33"/>
  <path id="path217" fill="#fff" d="m68.816 141.78c0.156 0.541 0.295 0.935 0.301 1.506-2.248-4.031-7.617-4.221-6.624 1.053-4.615-2.92 3.631-6.58 6.323-2.56"/>
  <path id="path219" fill="#fff" d="m65.353 148.86c2.023-0.262 3.697-2.136 4.669-3.312-0.67 6.049-9.907 3.94-9.638-1.355 0.824 2.25 2.961 4.1 4.969 4.66"/>
  <path id="path221" fill="#fff" d="m62.04 307.58c-1.216-0.558-2.067-1.063-2.259-2.561 2.033-0.78 2.747 0.14 2.259 2.56"/>
  <path id="path223" fill="#fff" d="m68.365 306.82c-2.236 4.16-2.887-2.91 0 0"/>
  <path id="path225" fill="#fff" d="m95.018 381.97c-0.08 0.017-1.116 0.668-1.506 0.753 0.446-1.36 1.094-0.67 1.506-0.75"/>
  <path id="path227" fill="#fff" d="m31.773 382.42c-1.388 0.466-2.292 0.095-3.313 1.204-0.193-2.2 1.647-2.87 3.313-1.2"/>
  <path id="path229" fill="#fff" d="m60.987 385.58c-0.649 0.216-0.818 1.681-1.959-0.149 0.979-0.37 1.275 0.19 1.959 0.15"/>
  <metadata>
    <rdf:RDF>
      <cc:Work>
        <dc:format>image/svg+xml</dc:format>
        <dc:type rdf:resource="http://purl.org/dc/dcmitype/StillImage"/>
        <cc:license rdf:resource="http://creativecommons.org/licenses/publicdomain/"/>
        <dc:publisher>
          <cc:Agent rdf:about="http://openclipart.org/">
            <dc:title>Openclipart</dc:title>
          </cc:Agent>
        </dc:publisher>
        <dc:title>Architetto -- Vestido da donna</dc:title>
        <dc:date>2009-04-19T13:03:40</dc:date>
        <dc:description>Lady's coat or dress on a manequin. By Francesco 'Architetto' Rollandin.</dc:description>
        <dc:source>http://openclipart.org/detail/25078/architetto----vestido-da-donna-by-anonymous-25078</dc:source>
        <dc:creator>
          <cc:Agent>
            <dc:title>Anonymous</dc:title>
          </cc:Agent>
        </dc:creator>
        <dc:subject>
          <rdf:Bag>
            <rdf:li>black and white</rdf:li>
            <rdf:li>clip art</rdf:li>
            <rdf:li>clipart</rdf:li>
            <rdf:li>coat</rdf:li>
            <rdf:li>dress</rdf:li>
            <rdf:li>dressmaker</rdf:li>
            <rdf:li>image</rdf:li>
            <rdf:li>lady</rdf:li>
            <rdf:li>manequin</rdf:li>
            <rdf:li>media</rdf:li>
            <rdf:li>png</rdf:li>
            <rdf:li>public domain</rdf:li>
            <rdf:li>sewing</rdf:li>
            <rdf:li>shopping</rdf:li>
            <rdf:li>svg</rdf:li>
          </rdf:Bag>
        </dc:subject>
      </cc:Work>
      <cc:License rdf:about="http://creativecommons.org/licenses/publicdomain/">
        <cc:permits rdf:resource="http://creativecommons.org/ns#Reproduction"/>
        <cc:permits rdf:resource="http://creativecommons.org/ns#Distribution"/>
        <cc:permits rdf:resource="http://creativecommons.org/ns#DerivativeWorks"/>
      </cc:License>
    </rdf:RDF>
  </metadata>
</svg>
